<svg xmlns="http://www.w3.org/2000/svg" xmlns:xlink="http://www.w3.org/1999/xlink" width="500" zoomAndPan="magnify" viewBox="0 0 375 374.999991" height="500" preserveAspectRatio="xMidYMid meet" version="1.0"><defs><clipPath id="4f5d36534f"><path d="M 44.003906 92.074219 L 230 92.074219 L 230 282.574219 L 44.003906 282.574219 Z M 44.003906 92.074219 " clip-rule="nonzero"/></clipPath></defs><g clip-path="url(#4f5d36534f)"><path fill="#3eff63" d="M 63.675781 195.792969 C 63.371094 193.058594 63.199219 190.285156 63.199219 187.46875 C 63.199219 184.652344 63.371094 181.875 63.675781 179.140625 L 44.085938 169.175781 C 45.578125 161.488281 47.996094 154.132812 51.21875 147.226562 L 51.21875 147.222656 L 72.925781 150.675781 C 75.6875 145.824219 78.964844 141.300781 82.707031 137.203125 L 72.730469 117.648438 C 78.359375 112.402344 84.621094 107.835938 91.394531 104.0625 L 106.921875 119.613281 C 111.933594 117.332031 117.230469 115.578125 122.761719 114.449219 L 126.179688 92.78125 L 126.183594 92.777344 C 129.96875 92.324219 133.816406 92.058594 137.722656 92.058594 C 141.632812 92.058594 145.480469 92.324219 149.265625 92.777344 C 149.265625 92.777344 149.269531 92.777344 149.269531 92.78125 L 152.6875 114.449219 C 158.214844 115.578125 163.515625 117.332031 168.527344 119.613281 L 184.054688 104.0625 C 190.828125 107.835938 197.089844 112.402344 202.71875 117.648438 L 192.738281 137.203125 C 196.480469 141.300781 199.761719 145.824219 202.523438 150.675781 L 224.230469 147.222656 C 226.273438 151.605469 227.988281 156.164062 229.351562 160.871094 L 182.394531 160.871094 C 173.320312 145.664062 156.714844 135.476562 137.722656 135.476562 C 109.011719 135.476562 85.734375 158.753906 85.734375 187.46875 C 85.734375 216.179688 109.011719 239.457031 137.722656 239.457031 C 156.714844 239.457031 173.320312 229.269531 182.394531 214.066406 L 229.351562 214.066406 C 227.988281 218.773438 226.273438 223.328125 224.230469 227.707031 L 224.230469 227.710938 L 202.523438 224.257812 C 199.761719 229.113281 196.480469 233.632812 192.738281 237.730469 L 202.71875 257.285156 C 197.089844 262.527344 190.828125 267.097656 184.054688 270.871094 L 168.523438 255.320312 C 163.515625 257.601562 158.214844 259.359375 152.6875 260.484375 L 149.269531 282.152344 C 149.269531 282.15625 149.265625 282.15625 149.265625 282.15625 C 145.480469 282.613281 141.632812 282.875 137.722656 282.875 C 133.816406 282.875 129.96875 282.613281 126.183594 282.15625 C 126.183594 282.15625 126.179688 282.15625 126.179688 282.15625 L 122.761719 260.484375 C 117.230469 259.359375 111.933594 257.601562 106.921875 255.320312 L 91.394531 270.871094 C 84.621094 267.097656 78.359375 262.53125 72.730469 257.285156 L 82.707031 237.730469 C 78.964844 233.632812 75.6875 229.113281 72.925781 224.257812 L 51.21875 227.707031 C 47.996094 220.800781 45.578125 213.445312 44.085938 205.757812 L 63.675781 195.792969 " fill-opacity="1" fill-rule="nonzero"/></g><path fill="#3eff63" d="M 279.839844 186.175781 L 290.40625 167.878906 C 290.867188 167.078125 291.71875 166.585938 292.640625 166.585938 L 330.960938 166.585938 C 324.191406 156.40625 312.628906 149.6875 299.492188 149.6875 C 285.558594 149.6875 273.421875 157.25 266.871094 168.472656 L 108.265625 168.472656 C 105.601562 168.472656 103.441406 170.632812 103.441406 173.296875 C 103.441406 175.960938 105.601562 178.121094 108.265625 178.121094 L 189.289062 178.121094 C 190.785156 178.121094 192 179.335938 192 180.832031 C 192 182.332031 190.785156 183.546875 189.289062 183.546875 L 133.820312 183.546875 C 131.65625 183.546875 129.902344 185.300781 129.902344 187.46875 C 129.902344 189.632812 131.65625 191.386719 133.820312 191.386719 L 189.289062 191.386719 C 190.785156 191.386719 192 192.601562 192 194.101562 C 192 195.597656 190.785156 196.8125 189.289062 196.8125 L 164.339844 196.8125 C 161.671875 196.8125 159.511719 198.972656 159.511719 201.636719 C 159.511719 204.300781 161.671875 206.460938 164.339844 206.460938 L 266.871094 206.460938 C 273.421875 217.683594 285.558594 225.246094 299.492188 225.246094 C 312.628906 225.246094 324.191406 218.53125 330.960938 208.347656 L 292.640625 208.347656 C 291.71875 208.347656 290.867188 207.859375 290.40625 207.058594 L 279.839844 188.757812 C 279.378906 187.957031 279.378906 186.976562 279.839844 186.175781 " fill-opacity="1" fill-rule="nonzero"/></svg>